[0;34m[INFO][0m Старт проверки Shotcut GPU/NVENC/OpenGL 
[0;34m[INFO][0m Проверка NVIDIA GPU... 
[0;34m[INFO][0m NVIDIA GPU обнаружена. 
[0;32m[OK][0m Драйвер NVIDIA работает. 
[0;32m[OK][0m CUDA Toolkit найден. 
[0;34m[INFO][0m Проверка Flatpak... 
[0;34m[INFO][0m Проброс GPU и кодеков для Shotcut Flatpak... 
[0;34m[INFO][0m Проверка OpenGL... 
[1;33m[WARN][0m OpenGL GPU недоступен внутри Flatpak Shotcut. 
[0;34m[INFO][0m Проверка NVENC кодеков через ffmpeg... 
[0;32m[OK][0m NVENC доступен :  V....D av1_nvenc            NVIDIA NVENC av1 encoder (codec av1)
 V....D h264_nvenc           NVIDIA NVENC H.264 encoder (codec h264)
 V....D hevc_nvenc           NVIDIA NVENC hevc encoder (codec hevc)
[0;34m[INFO][0m Запуск тестового экспорта 4K видео через NVENC... 
ffmpeg version 6.1.1-3ubuntu5 Copyright (c) 2000-2023 the FFmpeg developers
  built with gcc 13 (Ubuntu 13.2.0-23ubuntu3)
  configuration: --prefix=/usr --extra-version=3ubuntu5 --toolchain=hardened --libdir=/usr/lib/x86_64-linux-gnu --incdir=/usr/include/x86_64-linux-gnu --arch=amd64 --enable-gpl --disable-stripping --disable-omx --enable-gnutls --enable-libaom --enable-libass --enable-libbs2b --enable-libcaca --enable-libcdio --enable-libcodec2 --enable-libdav1d --enable-libflite --enable-libfontconfig --enable-libfreetype --enable-libfribidi --enable-libglslang --enable-libgme --enable-libgsm --enable-libharfbuzz --enable-libmp3lame --enable-libmysofa --enable-libopenjpeg --enable-libopenmpt --enable-libopus --enable-librubberband --enable-libshine --enable-libsnappy --enable-libsoxr --enable-libspeex --enable-libtheora --enable-libtwolame --enable-libvidstab --enable-libvorbis --enable-libvpx --enable-libwebp --enable-libx265 --enable-libxml2 --enable-libxvid --enable-libzimg --enable-openal --enable-opencl --enable-opengl --disable-sndio --enable-libvpl --disable-libmfx --enable-libdc1394 --enable-libdrm --enable-libiec61883 --enable-chromaprint --enable-frei0r --enable-ladspa --enable-libbluray --enable-libjack --enable-libpulse --enable-librabbitmq --enable-librist --enable-libsrt --enable-libssh --enable-libsvtav1 --enable-libx264 --enable-libzmq --enable-libzvbi --enable-lv2 --enable-sdl2 --enable-libplacebo --enable-librav1e --enable-pocketsphinx --enable-librsvg --enable-libjxl --enable-shared
  libavutil      58. 29.100 / 58. 29.100
  libavcodec     60. 31.102 / 60. 31.102
  libavformat    60. 16.100 / 60. 16.100
  libavdevice    60.  3.100 / 60.  3.100
  libavfilter     9. 12.100 /  9. 12.100
  libswscale      7.  5.100 /  7.  5.100
  libswresample   4. 12.100 /  4. 12.100
  libpostproc    57.  3.100 / 57.  3.100
Input #0, lavfi, from 'testsrc=duration=2:size=3840x2160:rate=30':
  Duration: N/A, start: 0.000000, bitrate: N/A
  Stream #0:0: Video: wrapped_avframe, rgb24, 3840x2160 [SAR 1:1 DAR 16:9], 30 fps, 30 tbr, 30 tbn
Stream mapping:
  Stream #0:0 -> #0:0 (wrapped_avframe (native) -> h264 (h264_nvenc))
Press [q] to stop, [?] for help
Output #0, mp4, to '/home/vladislav/shotcut_test_4k.mp4':
  Metadata:
    encoder         : Lavf60.16.100
  Stream #0:0: Video: h264 (High 4:4:4 Predictive) (avc1 / 0x31637661), gbrp(pc, gbr/unknown/unknown, progressive), 3840x2160 [SAR 1:1 DAR 16:9], q=2-31, 5000 kb/s, 30 fps, 15360 tbn
    Metadata:
      encoder         : Lavc60.31.102 h264_nvenc
    Side data:
      cpb: bitrate max/min/avg: 0/0/5000000 buffer size: 10000000 vbv_delay: N/A
frame=    0 fps=0.0 q=0.0 size=       0kB time=N/A bitrate=N/A speed=N/A    frame=    0 fps=0.0 q=0.0 size=       0kB time=N/A bitrate=N/A speed=N/A    frame=   20 fps= 17 q=35.0 size=     512kB time=00:00:00.56 bitrate=7402.4kbits/s speed=0.481x    [out#0/mp4 @ 0x5d7e45b5e900] video:1482kB audio:0kB subtitle:0kB other streams:0kB global headers:0kB muxing overhead: 0.107174%
frame=   60 fps= 37 q=37.0 Lsize=    1483kB time=00:00:01.86 bitrate=6509.1kbits/s speed=1.16x    
[0;32m[OK][0m Тестовое 4K видео создано : /home/vladislav/shotcut_test_4k.mp4
[0;34m[INFO][0m Проверка завершена : /mnt/backups/logs/check-shotcut-gpu.log
